<svg width="41" height="41" viewBox="0 0 41 41" fill="none"
    xmlns="http://www.w3.org/2000/svg">
    <g clip-path="url(#clip0_2746_112)">
        <path d="M27.2798 34.0341C27.0725 33.908 26.8919 33.739 26.7484 33.5341C26.6821 33.4396 26.6261 33.3396 26.5797 33.2364H3.02697V10.0215H34.9964V25.18C35.6789 25.2417 36.2516 25.6899 36.492 26.3037C36.7049 26.187 36.9422 26.1149 37.1915 26.0929C37.3602 26.0783 37.5278 26.0887 37.6903 26.1208V4.2382C37.6903 3.00028 36.6834 1.99316 35.4455 1.99316H2.57795C1.34013 1.99316 0.333008 3.00028 0.333008 4.2382V33.6855C0.333008 34.9234 1.34013 35.9305 2.57795 35.9305H27.0752C26.884 35.5433 26.8387 35.1063 26.9512 34.6859C27.0161 34.444 27.1283 34.2234 27.2798 34.0341ZM32.5312 5.76302C32.5312 5.30523 32.9023 4.93403 33.3601 4.93403H34.1889C34.6468 4.93403 35.0178 5.30514 35.0178 5.76302V6.70251C35.0178 7.1603 34.6467 7.53141 34.1889 7.53141H33.3601C32.9022 7.53141 32.5312 7.1603 32.5312 6.70251V5.76302ZM28.6767 5.76302C28.6767 5.30523 29.0478 4.93403 29.5056 4.93403H30.3346C30.7925 4.93403 31.1635 5.30514 31.1635 5.76302V6.70251C31.1635 7.1603 30.7924 7.53141 30.3346 7.53141H29.5056C29.0478 7.53141 28.6767 7.1603 28.6767 6.70251V5.76302ZM24.8222 5.76302C24.8222 5.30523 25.1934 4.93403 25.6511 4.93403H26.48C26.9379 4.93403 27.309 5.30514 27.309 5.76302V6.70251C27.309 7.1603 26.9379 7.53141 26.48 7.53141H25.6511C25.1934 7.53141 24.8222 7.1603 24.8222 6.70251V5.76302Z" fill="#00AA00"/>
        <path d="M40.3277 32.4534L40.0787 31.0407C40.045 30.8505 39.8638 30.7235 39.6734 30.757L38.4171 30.9784C38.2664 30.6245 38.0738 30.293 37.8451 29.9896L38.6657 29.0116C38.7253 28.9407 38.7543 28.8488 38.7463 28.7563C38.7382 28.6638 38.6936 28.5784 38.6225 28.5187L37.5239 27.5967C37.4528 27.537 37.3607 27.5081 37.2683 27.5162C37.1758 27.5243 37.0905 27.5687 37.0308 27.6398L36.2111 28.6171C35.8745 28.4457 35.5146 28.3134 35.1375 28.2262V26.9505C35.1375 26.7574 34.9808 26.6006 34.7876 26.6006H33.3531C33.16 26.6006 33.0032 26.7574 33.0032 26.9505V28.2262C32.6259 28.3133 32.2663 28.4457 31.9296 28.6171L31.1097 27.6399C30.9854 27.4919 30.7648 27.4726 30.6167 27.5968L29.518 28.5187C29.4469 28.5784 29.4024 28.6638 29.3942 28.7563C29.3862 28.8488 29.4152 28.9408 29.4748 29.0118L30.2954 29.9897C30.0672 30.293 29.8742 30.6247 29.7234 30.9784L28.4672 30.757C28.2773 30.7235 28.0956 30.8505 28.0619 31.0407L27.8129 32.4534C27.7968 32.5447 27.8177 32.6386 27.8707 32.7147C27.9242 32.7908 28.0051 32.8426 28.0965 32.8587L29.3537 33.0802C29.3741 33.4697 29.442 33.8465 29.5511 34.2054L28.4462 34.8431C28.3658 34.8893 28.3072 34.9659 28.2831 35.0554C28.2591 35.145 28.2718 35.2405 28.3181 35.3209L29.0352 36.5631C29.0814 36.6435 29.158 36.7021 29.2475 36.7261C29.2774 36.7341 29.3077 36.738 29.3381 36.738C29.399 36.738 29.4593 36.7222 29.513 36.6911L30.6188 36.0526C30.8789 36.3312 31.1724 36.5781 31.4932 36.7869L31.0566 37.9865C31.025 38.0737 31.0291 38.1699 31.0683 38.254C31.1076 38.3381 31.1785 38.4032 31.2657 38.4348L32.6133 38.9253C32.652 38.9394 32.6926 38.9466 32.7331 38.9466C32.7836 38.9466 32.8343 38.9357 32.8811 38.9138C32.9652 38.8746 33.0301 38.8035 33.0618 38.7163L33.4983 37.5168C33.6855 37.5394 33.876 37.5511 34.0693 37.5511C34.2626 37.5511 34.4531 37.5392 34.6402 37.5168L35.0769 38.7163C35.1085 38.8035 35.1737 38.8746 35.2576 38.9138C35.3043 38.9356 35.3548 38.9466 35.4056 38.9466C35.446 38.9466 35.4866 38.9396 35.5252 38.9253L36.8731 38.4348C36.96 38.4032 37.0311 38.3379 37.0703 38.254C37.1095 38.1699 37.1137 38.0737 37.082 37.9865L36.6453 36.7871C36.9659 36.5783 37.2594 36.3312 37.5198 36.0528L38.6256 36.6913C38.6792 36.7222 38.7396 36.7382 38.8004 36.7382C38.8307 36.7382 38.8614 36.7341 38.891 36.7262C38.9807 36.7022 39.0571 36.6435 39.1034 36.5633L39.8205 35.3209C39.8668 35.2407 39.8795 35.145 39.8555 35.0554C39.8314 34.9661 39.7728 34.8895 39.6924 34.8431L38.5876 34.2056C38.6968 33.8466 38.7644 33.4698 38.7849 33.0804L40.0421 32.8588C40.1335 32.8427 40.2147 32.7909 40.2678 32.7148C40.323 32.6386 40.3438 32.5447 40.3277 32.4534ZM34.0704 34.6981C33.0079 34.6981 32.1463 33.8365 32.1463 32.7739C32.1463 31.7112 33.008 30.8498 34.0704 30.8498C35.1331 30.8498 35.9947 31.7112 35.9947 32.7739C35.9947 33.8365 35.1331 34.6981 34.0704 34.6981Z" fill="#00AA00"/>
        <path d="M16.0201 22.89C16.0201 22.4374 15.7548 22.0216 15.3442 21.8309L11.5859 20.0847L15.3443 18.3383C15.7548 18.1474 16.0201 17.7317 16.0201 17.2793V17.2489C16.0201 16.8479 15.8183 16.4797 15.4805 16.2645C15.2936 16.1452 15.0759 16.082 14.8512 16.082C14.6819 16.082 14.5119 16.1193 14.3597 16.19L8.35132 18.984C7.94087 19.1749 7.67578 19.5906 7.67578 20.043V20.1265C7.67578 20.5783 7.94078 20.9937 8.35142 21.1855L14.3604 23.9799C14.5158 24.0518 14.6812 24.0883 14.8521 24.0883C15.0748 24.0883 15.2918 24.0251 15.4805 23.905C15.8185 23.689 16.0202 23.3211 16.0202 22.9206L16.0201 22.89Z" fill="#00AA00"/>
        <path d="M21.9486 13.235C21.7294 12.9349 21.3769 12.7559 21.0055 12.7559H20.9756C20.4656 12.7559 20.0185 13.0821 19.8631 13.567L15.9044 25.8331C15.7917 26.1872 15.8551 26.5773 16.074 26.8772C16.2932 27.1771 16.6457 27.3563 17.0171 27.3563H17.0471C17.5569 27.3563 18.0038 27.0299 18.1589 26.5451L22.1172 14.28C22.2309 13.9261 22.1679 13.5355 21.9486 13.235Z" fill="#00AA00"/>
        <path d="M29.6705 18.9838L23.662 16.1898C23.5104 16.1193 23.3406 16.082 23.1713 16.082C22.9467 16.082 22.7289 16.145 22.5421 16.2642C22.2038 16.4797 22.002 16.8478 22.002 17.2488V17.2792C22.002 17.7313 22.267 18.147 22.678 18.3387L26.4361 20.0847L22.6779 21.8308C22.2672 22.0215 22.002 22.4373 22.002 22.8899V22.9205C22.002 23.321 22.2038 23.6888 22.5419 23.905C22.73 24.0249 22.9472 24.0882 23.1701 24.0882C23.3408 24.0882 23.5061 24.0517 23.6625 23.9795L29.6713 21.1852C30.0816 20.9938 30.3465 20.5783 30.3465 20.1265V20.043C30.3462 19.5905 30.0811 19.1748 29.6705 18.9838Z" fill="#00AA00"/>
    </g>
    <defs>
        <clipPath id="clip0_2746_112">
            <rect width="40" height="40" fill="white" transform="translate(0.333008 0.469727)"/>
        </clipPath>
    </defs>
</svg>
