<svg width="41" height="41" viewBox="0 0 41 41" fill="none"
    xmlns="http://www.w3.org/2000/svg">
    <g clip-path="url(#clip0_2746_1720)">
        <path d="M27.6128 34.0341C27.4056 33.908 27.225 33.739 27.0814 33.5341C27.0151 33.4396 26.9591 33.3396 26.9127 33.2364H3.35998V10.0215H35.3294V25.18C36.0119 25.2417 36.5846 25.6899 36.825 26.3037C37.0379 26.187 37.2752 26.1149 37.5245 26.0929C37.6932 26.0783 37.8608 26.0887 38.0233 26.1208V4.2382C38.0233 3.00028 37.0164 1.99316 35.7785 1.99316H2.91096C1.67313 1.99316 0.666016 3.00028 0.666016 4.2382V33.6855C0.666016 34.9234 1.67313 35.9305 2.91096 35.9305H27.4082C27.217 35.5433 27.1717 35.1063 27.2842 34.6859C27.3491 34.444 27.4613 34.2234 27.6128 34.0341ZM32.8642 5.76302C32.8642 5.30523 33.2353 4.93403 33.6931 4.93403H34.522C34.9798 4.93403 35.3509 5.30514 35.3509 5.76302V6.70251C35.3509 7.1603 34.9797 7.53141 34.522 7.53141H33.6931C33.2352 7.53141 32.8642 7.1603 32.8642 6.70251V5.76302ZM29.0097 5.76302C29.0097 5.30523 29.3808 4.93403 29.8386 4.93403H30.6676C31.1255 4.93403 31.4965 5.30514 31.4965 5.76302V6.70251C31.4965 7.1603 31.1254 7.53141 30.6676 7.53141H29.8386C29.3808 7.53141 29.0097 7.1603 29.0097 6.70251V5.76302ZM25.1552 5.76302C25.1552 5.30523 25.5264 4.93403 25.9841 4.93403H26.813C27.2709 4.93403 27.642 5.30514 27.642 5.76302V6.70251C27.642 7.1603 27.2709 7.53141 26.813 7.53141H25.9841C25.5264 7.53141 25.1552 7.1603 25.1552 6.70251V5.76302Z" fill="#00AA00"/>
        <path d="M40.6608 32.4534L40.4117 31.0407C40.378 30.8505 40.1968 30.7235 40.0064 30.757L38.7502 30.9784C38.5994 30.6245 38.4068 30.293 38.1782 29.9896L38.9987 29.0116C39.0583 28.9407 39.0874 28.8488 39.0794 28.7563C39.0712 28.6638 39.0266 28.5784 38.9555 28.5187L37.8569 27.5967C37.7858 27.537 37.6937 27.5081 37.6013 27.5162C37.5088 27.5243 37.4235 27.5687 37.3638 27.6398L36.5441 28.6171C36.2075 28.4457 35.8476 28.3134 35.4705 28.2262V26.9505C35.4705 26.7574 35.3138 26.6006 35.1206 26.6006H33.6861C33.493 26.6006 33.3362 26.7574 33.3362 26.9505V28.2262C32.9589 28.3133 32.5993 28.4457 32.2626 28.6171L31.4427 27.6399C31.3185 27.4919 31.0978 27.4726 30.9497 27.5968L29.851 28.5187C29.7799 28.5784 29.7354 28.6638 29.7272 28.7563C29.7192 28.8488 29.7482 28.9408 29.8078 29.0118L30.6284 29.9897C30.4002 30.293 30.2072 30.6247 30.0564 30.9784L28.8002 30.757C28.6103 30.7235 28.4286 30.8505 28.3949 31.0407L28.1459 32.4534C28.1298 32.5447 28.1507 32.6386 28.2038 32.7147C28.2572 32.7908 28.3381 32.8426 28.4295 32.8587L29.6867 33.0802C29.7071 33.4697 29.775 33.8465 29.8841 34.2054L28.7792 34.8431C28.6988 34.8893 28.6402 34.9659 28.6161 35.0554C28.5921 35.145 28.6048 35.2405 28.6511 35.3209L29.3682 36.5631C29.4144 36.6435 29.491 36.7021 29.5806 36.7261C29.6104 36.7341 29.6408 36.738 29.6711 36.738C29.732 36.738 29.7923 36.7222 29.846 36.6911L30.9518 36.0526C31.2119 36.3312 31.5054 36.5781 31.8263 36.7869L31.3896 37.9865C31.358 38.0737 31.3621 38.1699 31.4013 38.254C31.4406 38.3381 31.5115 38.4032 31.5987 38.4348L32.9463 38.9253C32.985 38.9394 33.0256 38.9466 33.0661 38.9466C33.1166 38.9466 33.1673 38.9357 33.2141 38.9138C33.2982 38.8746 33.3631 38.8035 33.3948 38.7163L33.8313 37.5168C34.0185 37.5394 34.209 37.5511 34.4023 37.5511C34.5956 37.5511 34.7861 37.5392 34.9732 37.5168L35.4099 38.7163C35.4415 38.8035 35.5067 38.8746 35.5906 38.9138C35.6373 38.9356 35.6878 38.9466 35.7386 38.9466C35.779 38.9466 35.8196 38.9396 35.8582 38.9253L37.2061 38.4348C37.2931 38.4032 37.3641 38.3379 37.4033 38.254C37.4425 38.1699 37.4467 38.0737 37.415 37.9865L36.9783 36.7871C37.2989 36.5783 37.5924 36.3312 37.8528 36.0528L38.9586 36.6913C39.0122 36.7222 39.0726 36.7382 39.1335 36.7382C39.1637 36.7382 39.1944 36.7341 39.224 36.7262C39.3137 36.7022 39.3901 36.6435 39.4364 36.5633L40.1535 35.3209C40.1998 35.2407 40.2125 35.145 40.1885 35.0554C40.1644 34.9661 40.1058 34.8895 40.0254 34.8431L38.9207 34.2056C39.0298 33.8466 39.0975 33.4698 39.1179 33.0804L40.3751 32.8588C40.4665 32.8427 40.5477 32.7909 40.6008 32.7148C40.656 32.6386 40.6769 32.5447 40.6608 32.4534ZM34.4034 34.6981C33.3409 34.6981 32.4793 33.8365 32.4793 32.7739C32.4793 31.7112 33.341 30.8498 34.4034 30.8498C35.4661 30.8498 36.3277 31.7112 36.3277 32.7739C36.3277 33.8365 35.4661 34.6981 34.4034 34.6981Z" fill="#122740"/>
        <path d="M16.3541 22.89C16.3541 22.4374 16.0888 22.0216 15.6782 21.8309L11.9199 20.0847L15.6783 18.3383C16.0888 18.1474 16.3541 17.7317 16.3541 17.2793V17.2489C16.3541 16.8479 16.1522 16.4797 15.8145 16.2645C15.6276 16.1452 15.4099 16.082 15.1852 16.082C15.0159 16.082 14.8458 16.1193 14.6937 16.19L8.6853 18.984C8.27486 19.1749 8.00977 19.5906 8.00977 20.043V20.1265C8.00977 20.5783 8.27476 20.9937 8.6854 21.1855L14.6944 23.9799C14.8497 24.0518 15.0152 24.0883 15.1861 24.0883C15.4088 24.0883 15.6258 24.0251 15.8145 23.905C16.1524 23.689 16.3542 23.3211 16.3542 22.9206L16.3541 22.89Z" fill="#122740"/>
        <path d="M22.2826 13.235C22.0634 12.9349 21.7109 12.7559 21.3395 12.7559H21.3096C20.7996 12.7559 20.3525 13.0821 20.1971 13.567L16.2384 25.8331C16.1257 26.1872 16.1891 26.5773 16.408 26.8772C16.6272 27.1771 16.9797 27.3563 17.3511 27.3563H17.3811C17.8909 27.3563 18.3378 27.0299 18.4929 26.5451L22.4512 14.28C22.5649 13.9261 22.5019 13.5355 22.2826 13.235Z" fill="#122740"/>
        <path d="M30.0045 18.9838L23.996 16.1898C23.8444 16.1193 23.6746 16.082 23.5053 16.082C23.2807 16.082 23.0629 16.145 22.8761 16.2642C22.5378 16.4797 22.3359 16.8478 22.3359 17.2488V17.2792C22.3359 17.7313 22.601 18.147 23.012 18.3387L26.7701 20.0847L23.0119 21.8308C22.6012 22.0215 22.3359 22.4373 22.3359 22.8899V22.9205C22.3359 23.321 22.5378 23.6888 22.8759 23.905C23.064 24.0249 23.2811 24.0882 23.5041 24.0882C23.6748 24.0882 23.8401 24.0517 23.9965 23.9795L30.0053 21.1852C30.4156 20.9938 30.6804 20.5783 30.6804 20.1265V20.043C30.6802 19.5905 30.4151 19.1748 30.0045 18.9838Z" fill="#00AA00"/>
    </g>
    <defs>
        <clipPath id="clip0_2746_1720">
            <rect width="40" height="40" fill="white" transform="translate(0.666016 0.469727)"/>
        </clipPath>
    </defs>
</svg>
