<svg width="104" height="104" viewBox="0 0 104 104" fill="none"
    xmlns="http://www.w3.org/2000/svg">
    <g filter="url(#filter0_d_334_6261)">
        <circle cx="52" cy="44.5391" r="36" fill="#00AA00"/>
        <g clip-path="url(#clip0_334_6261)">
            <path d="M34.3947 45.0859C34.3938 48.3122 35.2434 51.4625 36.8589 54.2392L34.2402 63.7264L44.025 61.1807C46.7314 62.6426 49.7636 63.4086 52.845 63.4088H52.8531C63.0254 63.4088 71.3058 55.1955 71.3102 45.1003C71.3121 40.2085 69.3939 35.6085 65.9088 32.1478C62.4243 28.6873 57.7901 26.7806 52.8524 26.7783C42.6789 26.7783 34.3991 34.9912 34.3949 45.0859" fill="url(#paint0_linear_334_6261)"/>
            <path d="M33.4408 44.7836C33.4397 48.126 34.3198 51.389 35.9929 54.2651L33.2803 64.0924L43.4159 61.4554C46.2086 62.9663 49.3529 63.7629 52.5524 63.764H52.5607C63.0979 63.764 71.6758 55.2553 71.6803 44.7988C71.6821 39.7311 69.6949 34.9658 66.0853 31.3811C62.4752 27.7968 57.6752 25.8214 52.5607 25.8193C42.0217 25.8193 33.4451 34.3269 33.4409 44.7836H33.4408ZM39.4768 53.7698L39.0983 53.1737C37.5074 50.6637 36.6677 47.7632 36.6689 44.7848C36.6724 36.0934 43.801 29.0223 52.5667 29.0223C56.8117 29.0241 60.8011 30.6661 63.8017 33.6452C66.8021 36.6246 68.4532 40.5852 68.4521 44.7976C68.4482 53.4889 61.3195 60.5609 52.5607 60.5609H52.5544C49.7024 60.5594 46.9054 59.7995 44.4661 58.3633L43.8856 58.0218L37.8709 59.5865L39.4768 53.7696V53.7698Z" fill="url(#paint1_linear_334_6261)"/>
            <path d="M47.8164 37.209C47.4585 36.4197 47.0818 36.4038 46.7415 36.3899C46.4628 36.378 46.1442 36.3789 45.8259 36.3789C45.5073 36.3789 44.9896 36.4978 44.5521 36.9719C44.1141 37.4464 42.8799 38.593 42.8799 40.9252C42.8799 43.2574 44.5918 45.5113 44.8305 45.8279C45.0694 46.1438 48.1354 51.0828 52.9912 52.9829C57.0268 54.5619 57.8481 54.2479 58.7239 54.1687C59.5999 54.0898 61.5505 53.0223 61.9485 51.9154C62.3467 50.8087 62.3467 49.86 62.2273 49.6617C62.1079 49.4642 61.7893 49.3456 61.3116 49.1087C60.8337 48.8716 58.485 47.7248 58.0471 47.5666C57.6091 47.4085 57.2907 47.3296 56.9721 47.8043C56.6535 48.2782 55.7386 49.3456 55.4598 49.6617C55.1812 49.9786 54.9024 50.0181 54.4248 49.781C53.9467 49.5431 52.4082 49.0432 50.5828 47.4284C49.1626 46.172 48.2038 44.6203 47.9251 44.1457C47.6464 43.6718 47.8953 43.4149 48.1348 43.1787C48.3495 42.9663 48.6127 42.6252 48.8518 42.3485C49.09 42.0716 49.1695 41.8741 49.3288 41.558C49.4883 41.2416 49.4085 40.9647 49.2892 40.7276C49.1695 40.4906 48.2412 38.1464 47.8164 37.2091" fill="white"/>
        </g>
    </g>
    <defs>
        <filter id="filter0_d_334_6261" x="0.640001" y="0.859063" width="102.72" height="102.72" filterUnits="userSpaceOnUse" color-interpolation-filters="sRGB">
            <feFlood flood-opacity="0" result="BackgroundImageFix"/>
            <feColorMatrix in="SourceAlpha" type="matrix" values="0 0 0 0 0 0 0 0 0 0 0 0 0 0 0 0 0 0 127 0" result="hardAlpha"/>
            <feOffset dy="7.68"/>
            <feGaussianBlur stdDeviation="7.68"/>
            <feComposite in2="hardAlpha" operator="out"/>
            <feColorMatrix type="matrix" values="0 0 0 0 0 0 0 0 0 0 0 0 0 0 0 0 0 0 0.16 0"/>
            <feBlend mode="normal" in2="BackgroundImageFix" result="effect1_dropShadow_334_6261"/>
            <feBlend mode="normal" in="SourceGraphic" in2="effect1_dropShadow_334_6261" result="shape"/>
        </filter>
        <linearGradient id="paint0_linear_334_6261" x1="52.7752" y1="63.7264" x2="52.7752" y2="26.7783" gradientUnits="userSpaceOnUse">
            <stop stop-color="#1FAF38"/>
            <stop offset="1" stop-color="#60D669"/>
        </linearGradient>
        <linearGradient id="paint1_linear_334_6261" x1="52.4803" y1="64.0924" x2="52.4803" y2="25.8193" gradientUnits="userSpaceOnUse">
            <stop stop-color="#F9F9F9"/>
            <stop offset="1" stop-color="white"/>
        </linearGradient>
        <clipPath id="clip0_334_6261">
            <rect width="38.4" height="38.4" fill="white" transform="translate(33.2803 25.8193)"/>
        </clipPath>
    </defs>
</svg>
