<svg width="24" height="25" viewBox="0 0 24 25" fill="none"
    xmlns="http://www.w3.org/2000/svg">
    <circle cx="12" cy="12.2324" r="12" fill="white"/>
    <path d="M12.0008 7.47205C13.5511 7.47205 13.7347 7.47785 14.3471 7.50578C14.7154 7.51029 15.0801 7.5779 15.4255 7.70569C15.676 7.80228 15.9034 7.95025 16.0932 8.14007C16.283 8.32988 16.431 8.55735 16.5276 8.80781C16.6554 9.15319 16.723 9.51792 16.7275 9.88615C16.7552 10.4986 16.7612 10.6822 16.7612 12.2325C16.7612 13.7828 16.7554 13.9664 16.7275 14.5789C16.723 14.9471 16.6554 15.3118 16.5276 15.6572C16.431 15.9077 16.283 16.1351 16.0932 16.325C15.9034 16.5148 15.676 16.6627 15.4255 16.7593C15.0801 16.8871 14.7154 16.9547 14.3471 16.9592C13.735 16.9869 13.5514 16.993 12.0008 16.993C10.4502 16.993 10.2666 16.9872 9.65443 16.9592C9.2862 16.9547 8.92146 16.8871 8.57609 16.7593C8.32562 16.6627 8.09816 16.5148 7.90835 16.325C7.71853 16.1351 7.57056 15.9077 7.47397 15.6572C7.34618 15.3118 7.27857 14.9471 7.27406 14.5789C7.24641 13.9664 7.24033 13.7828 7.24033 12.2325C7.24033 10.6822 7.24613 10.4986 7.27406 9.88615C7.27857 9.51792 7.34618 9.15319 7.47397 8.80781C7.57056 8.55735 7.71853 8.32988 7.90835 8.14007C8.09816 7.95025 8.32562 7.80228 8.57609 7.70569C8.92146 7.5779 9.2862 7.51029 9.65443 7.50578C10.2669 7.47813 10.4505 7.47205 12.0008 7.47205ZM12.0008 6.42578C10.4248 6.42578 10.2262 6.43242 9.60687 6.46062C9.12495 6.47021 8.64814 6.56145 8.19673 6.73048C7.8095 6.87638 7.45876 7.10502 7.16899 7.40044C6.8733 7.69031 6.64447 8.04125 6.49848 8.42873C6.32945 8.88014 6.23821 9.35695 6.22862 9.83887C6.20097 10.4577 6.19434 10.6562 6.19434 12.2322C6.19434 13.8083 6.20097 14.0068 6.22917 14.6261C6.23876 15.1081 6.33001 15.5849 6.49904 16.0363C6.64486 16.4237 6.8735 16.7747 7.16899 17.0646C7.45892 17.3601 7.80985 17.5887 8.19729 17.7345C8.64869 17.9036 9.1255 17.9948 9.60742 18.0044C10.2268 18.032 10.4245 18.0392 12.0013 18.0392C13.5782 18.0392 13.7759 18.0326 14.3953 18.0044C14.8772 17.9948 15.354 17.9036 15.8054 17.7345C16.191 17.5851 16.5412 17.3568 16.8335 17.0643C17.1258 16.7717 17.3539 16.4214 17.5031 16.0357C17.6721 15.5843 17.7634 15.1075 17.773 14.6256C17.8006 14.0068 17.8072 13.8083 17.8072 12.2322C17.8072 10.6562 17.8006 10.4577 17.7724 9.83832C17.7628 9.35639 17.6716 8.87959 17.5025 8.42818C17.3567 8.04074 17.1281 7.68981 16.8326 7.39988C16.5427 7.1044 16.1917 6.87576 15.8043 6.72993C15.3529 6.5609 14.8761 6.46965 14.3942 6.46007C13.7753 6.43242 13.5768 6.42578 12.0008 6.42578Z" fill="#2B2D42"/>
    <path d="M12.0023 9.25195C11.4125 9.25195 10.836 9.42683 10.3457 9.75447C9.85534 10.0821 9.47316 10.5478 9.24748 11.0926C9.0218 11.6375 8.96275 12.237 9.0778 12.8154C9.19285 13.3938 9.47684 13.9251 9.89384 14.3421C10.3108 14.7591 10.8421 15.0431 11.4205 15.1582C11.999 15.2732 12.5985 15.2142 13.1433 14.9885C13.6882 14.7628 14.1539 14.3806 14.4815 13.8903C14.8091 13.3999 14.984 12.8234 14.984 12.2337C14.984 11.4429 14.6699 10.6845 14.1107 10.1253C13.5515 9.5661 12.7931 9.25195 12.0023 9.25195ZM12.0023 14.1692C11.6195 14.1692 11.2453 14.0557 10.927 13.843C10.6087 13.6303 10.3606 13.328 10.2141 12.9744C10.0676 12.6207 10.0293 12.2316 10.104 11.8561C10.1786 11.4807 10.363 11.1358 10.6337 10.8651C10.9043 10.5944 11.2492 10.4101 11.6247 10.3354C12.0001 10.2607 12.3893 10.2991 12.7429 10.4456C13.0966 10.592 13.3989 10.8401 13.6116 11.1584C13.8242 11.4767 13.9377 11.8509 13.9377 12.2337C13.9377 12.747 13.7338 13.2393 13.3709 13.6023C13.0079 13.9653 12.5156 14.1692 12.0023 14.1692Z" fill="#2B2D42"/>
    <path d="M15.1011 9.8291C15.4859 9.8291 15.7978 9.51714 15.7978 9.13232C15.7978 8.7475 15.4859 8.43555 15.1011 8.43555C14.7163 8.43555 14.4043 8.7475 14.4043 9.13232C14.4043 9.51714 14.7163 9.8291 15.1011 9.8291Z" fill="#2B2D42"/>
</svg>
