<svg width="24" height="25" viewBox="0 0 24 25" fill="none"
    xmlns="http://www.w3.org/2000/svg">
    <circle cx="12" cy="12.2324" r="12" fill="white"/>
    <path d="M17.3208 9.64595C16.9617 9.80558 16.5825 9.90535 16.1835 9.96521C16.5825 9.72577 16.9018 9.34665 17.0415 8.88772C16.6624 9.10721 16.2433 9.26684 15.7844 9.3666C15.4252 8.98749 14.9064 8.74805 14.3478 8.74805C13.2703 8.74805 12.3923 9.626 12.3923 10.7035C12.3923 10.8631 12.4123 11.0028 12.4522 11.1425C10.8359 11.0626 9.37935 10.2845 8.40163 9.08726C8.242 9.38656 8.14223 9.70581 8.14223 10.065C8.14223 10.7434 8.48144 11.342 9.02018 11.7012C8.70093 11.6812 8.40163 11.6014 8.12228 11.4617V11.4817C8.12228 12.4394 8.8007 13.2376 9.6986 13.4172C9.53897 13.4571 9.35939 13.477 9.17981 13.477C9.06009 13.477 8.92042 13.4571 8.8007 13.4371C9.06009 14.2153 9.77841 14.7939 10.6364 14.7939C9.958 15.3127 9.11995 15.632 8.20209 15.632C8.04247 15.632 7.88284 15.632 7.74316 15.612C8.62112 16.1707 9.63874 16.49 10.7561 16.49C14.3677 16.49 16.3431 13.497 16.3431 10.903C16.3431 10.8232 16.3431 10.7234 16.3431 10.6436C16.7222 10.3842 17.0614 10.045 17.3208 9.64595Z" fill="#2B2D42"/>
</svg>
