<svg width="24" height="25" viewBox="0 0 24 25" fill="none"
    xmlns="http://www.w3.org/2000/svg">
    <circle cx="12" cy="12.2324" r="12" fill="white"/>
    <path fill-rule="evenodd" clip-rule="evenodd" d="M12.522 6.42578C9.44402 6.42578 6.96777 8.90203 6.96777 11.98C6.96777 14.4331 8.5646 16.5159 10.7631 17.2565C11.0409 17.3028 11.1334 17.1408 11.1334 16.9788C11.1334 16.8399 11.1334 16.4928 11.1334 16.0299C9.58287 16.3771 9.25888 15.2894 9.25888 15.2894C9.00431 14.6414 8.63403 14.4794 8.63403 14.4794C8.1249 14.1322 8.68032 14.1322 8.68032 14.1322C9.23574 14.1785 9.53659 14.7108 9.53659 14.7108C10.0226 15.5671 10.8326 15.3125 11.1566 15.1736C11.2028 14.8034 11.3417 14.5719 11.5037 14.4331C10.2771 14.2942 8.98117 13.8082 8.98117 11.6791C8.98117 11.0774 9.18945 10.5683 9.55973 10.198C9.51345 10.0592 9.30516 9.50373 9.60602 8.71689C9.60602 8.71689 10.0689 8.57803 11.1334 9.29545C11.5731 9.17974 12.0591 9.11031 12.522 9.11031C12.9848 9.11031 13.4708 9.17974 13.9105 9.29545C14.9751 8.57803 15.4379 8.71689 15.4379 8.71689C15.7388 9.48059 15.5536 10.036 15.4842 10.198C15.8313 10.5914 16.0628 11.0774 16.0628 11.6791C16.0628 13.8082 14.7668 14.2711 13.5171 14.4099C13.7254 14.5719 13.8874 14.9191 13.8874 15.4282C13.8874 16.1688 13.8874 16.7705 13.8874 16.9556C13.8874 17.0945 13.9799 17.2796 14.2808 17.2333C16.4793 16.5159 18.0762 14.4331 18.0762 11.98C18.0762 8.90203 15.5999 6.42578 12.522 6.42578Z" fill="#2B2D42"/>
</svg>
