<svg width="40" height="40" viewBox="0 0 40 40" fill="none" xmlns="http://www.w3.org/2000/svg">
<circle cx="20" cy="20" r="20" fill="#00AA00"/>
<path fill-rule="evenodd" clip-rule="evenodd" d="M20.8683 10.3262C15.7384 10.3262 11.6113 14.4532 11.6113 19.5832C11.6113 23.6717 14.2727 27.143 17.9369 28.3773C18.3998 28.4545 18.5541 28.1845 18.5541 27.9145C18.5541 27.683 18.5541 27.1045 18.5541 26.3331C15.9698 26.9116 15.4298 25.0988 15.4298 25.0988C15.0056 24.0188 14.3884 23.7488 14.3884 23.7488C13.5399 23.1703 14.4656 23.1703 14.4656 23.1703C15.3913 23.2474 15.8927 24.1345 15.8927 24.1345C16.7027 25.5616 18.0527 25.1374 18.5926 24.9059C18.6698 24.2888 18.9012 23.9031 19.1712 23.6717C17.127 23.4402 14.967 22.6303 14.967 19.0817C14.967 18.0789 15.3141 17.2303 15.9313 16.6132C15.8541 16.3818 15.507 15.4561 16.0084 14.1447C16.0084 14.1447 16.7798 13.9133 18.5541 15.109C19.2869 14.9161 20.0969 14.8004 20.8683 14.8004C21.6397 14.8004 22.4497 14.9161 23.1826 15.109C24.9568 13.9133 25.7282 14.1447 25.7282 14.1447C26.2297 15.4175 25.9211 16.3432 25.8054 16.6132C26.3839 17.2689 26.7697 18.0789 26.7697 19.0817C26.7697 22.6303 24.6097 23.4017 22.5269 23.6331C22.874 23.9031 23.144 24.4817 23.144 25.3302C23.144 26.5645 23.144 27.5673 23.144 27.8759C23.144 28.1073 23.2983 28.4159 23.7997 28.3387C27.4639 27.143 30.1253 23.6717 30.1253 19.5832C30.1253 14.4532 25.9982 10.3262 20.8683 10.3262Z" fill="white"/>
</svg>
