<svg width="41" height="37" viewBox="0 0 41 37" fill="none" xmlns="http://www.w3.org/2000/svg">
<path d="M27.2798 32.0341C27.0725 31.908 26.8919 31.739 26.7484 31.5341C26.6821 31.4396 26.6261 31.3396 26.5797 31.2364H3.02697V8.02153H34.9964V23.18C35.6789 23.2417 36.2516 23.6899 36.492 24.3037C36.7049 24.187 36.9422 24.1149 37.1915 24.0929C37.3602 24.0783 37.5278 24.0887 37.6903 24.1208V2.2382C37.6903 1.00028 36.6834 -0.00683594 35.4455 -0.00683594H2.57795C1.34013 -0.00683594 0.333008 1.00028 0.333008 2.2382V31.6855C0.333008 32.9234 1.34013 33.9305 2.57795 33.9305H27.0752C26.884 33.5433 26.8387 33.1063 26.9512 32.6859C27.0161 32.444 27.1283 32.2234 27.2798 32.0341ZM32.5312 3.76302C32.5312 3.30523 32.9023 2.93403 33.3601 2.93403H34.1889C34.6468 2.93403 35.0178 3.30514 35.0178 3.76302V4.70251C35.0178 5.1603 34.6467 5.53141 34.1889 5.53141H33.3601C32.9022 5.53141 32.5312 5.1603 32.5312 4.70251V3.76302ZM28.6767 3.76302C28.6767 3.30523 29.0478 2.93403 29.5056 2.93403H30.3346C30.7925 2.93403 31.1635 3.30514 31.1635 3.76302V4.70251C31.1635 5.1603 30.7924 5.53141 30.3346 5.53141H29.5056C29.0478 5.53141 28.6767 5.1603 28.6767 4.70251V3.76302ZM24.8222 3.76302C24.8222 3.30523 25.1934 2.93403 25.6511 2.93403H26.48C26.9379 2.93403 27.309 3.30514 27.309 3.76302V4.70251C27.309 5.1603 26.9379 5.53141 26.48 5.53141H25.6511C25.1934 5.53141 24.8222 5.1603 24.8222 4.70251V3.76302Z" fill="#00AA00"/>
<path d="M40.3277 30.4534L40.0787 29.0407C40.045 28.8505 39.8638 28.7235 39.6734 28.757L38.4171 28.9784C38.2664 28.6245 38.0738 28.293 37.8451 27.9896L38.6657 27.0116C38.7253 26.9407 38.7543 26.8488 38.7463 26.7563C38.7382 26.6638 38.6936 26.5784 38.6225 26.5187L37.5239 25.5967C37.4528 25.537 37.3607 25.5081 37.2683 25.5162C37.1758 25.5243 37.0905 25.5687 37.0308 25.6398L36.2111 26.6171C35.8745 26.4457 35.5146 26.3134 35.1375 26.2262V24.9505C35.1375 24.7574 34.9808 24.6006 34.7876 24.6006H33.3531C33.16 24.6006 33.0032 24.7574 33.0032 24.9505V26.2262C32.6259 26.3133 32.2663 26.4457 31.9296 26.6171L31.1097 25.6399C30.9854 25.4919 30.7648 25.4726 30.6167 25.5968L29.518 26.5187C29.4469 26.5784 29.4024 26.6638 29.3942 26.7563C29.3862 26.8488 29.4152 26.9408 29.4748 27.0118L30.2954 27.9897C30.0672 28.293 29.8742 28.6247 29.7234 28.9784L28.4672 28.757C28.2773 28.7235 28.0956 28.8505 28.0619 29.0407L27.8129 30.4534C27.7968 30.5447 27.8177 30.6386 27.8707 30.7147C27.9242 30.7908 28.0051 30.8426 28.0965 30.8587L29.3537 31.0802C29.3741 31.4697 29.442 31.8465 29.5511 32.2054L28.4462 32.8431C28.3658 32.8893 28.3072 32.9659 28.2831 33.0554C28.2591 33.145 28.2718 33.2405 28.3181 33.3209L29.0352 34.5631C29.0814 34.6435 29.158 34.7021 29.2475 34.7261C29.2774 34.7341 29.3077 34.738 29.3381 34.738C29.399 34.738 29.4593 34.7222 29.513 34.6911L30.6188 34.0526C30.8789 34.3312 31.1724 34.5781 31.4932 34.7869L31.0566 35.9865C31.025 36.0737 31.0291 36.1699 31.0683 36.254C31.1076 36.3381 31.1785 36.4032 31.2657 36.4348L32.6133 36.9253C32.652 36.9394 32.6926 36.9466 32.7331 36.9466C32.7836 36.9466 32.8343 36.9357 32.8811 36.9138C32.9652 36.8746 33.0301 36.8035 33.0618 36.7163L33.4983 35.5168C33.6855 35.5394 33.876 35.5511 34.0693 35.5511C34.2626 35.5511 34.4531 35.5392 34.6402 35.5168L35.0769 36.7163C35.1085 36.8035 35.1737 36.8746 35.2576 36.9138C35.3043 36.9356 35.3548 36.9466 35.4056 36.9466C35.446 36.9466 35.4866 36.9396 35.5252 36.9253L36.8731 36.4348C36.96 36.4032 37.0311 36.3379 37.0703 36.254C37.1095 36.1699 37.1137 36.0737 37.082 35.9865L36.6453 34.7871C36.9659 34.5783 37.2594 34.3312 37.5198 34.0528L38.6256 34.6913C38.6792 34.7222 38.7396 34.7382 38.8004 34.7382C38.8307 34.7382 38.8614 34.7341 38.891 34.7262C38.9807 34.7022 39.0571 34.6435 39.1034 34.5633L39.8205 33.3209C39.8668 33.2407 39.8795 33.145 39.8555 33.0554C39.8314 32.9661 39.7728 32.8895 39.6924 32.8431L38.5876 32.2056C38.6968 31.8466 38.7644 31.4698 38.7849 31.0804L40.0421 30.8588C40.1335 30.8427 40.2147 30.7909 40.2678 30.7148C40.323 30.6386 40.3438 30.5447 40.3277 30.4534ZM34.0704 32.6981C33.0079 32.6981 32.1463 31.8365 32.1463 30.7739C32.1463 29.7112 33.008 28.8498 34.0704 28.8498C35.1331 28.8498 35.9947 29.7112 35.9947 30.7739C35.9947 31.8365 35.1331 32.6981 34.0704 32.6981Z" fill="#00AA00"/>
<path d="M16.0201 20.89C16.0201 20.4374 15.7548 20.0216 15.3442 19.8309L11.5859 18.0847L15.3443 16.3383C15.7548 16.1474 16.0201 15.7317 16.0201 15.2793V15.2489C16.0201 14.8479 15.8183 14.4797 15.4805 14.2645C15.2936 14.1452 15.0759 14.082 14.8512 14.082C14.6819 14.082 14.5119 14.1193 14.3597 14.19L8.35132 16.984C7.94087 17.1749 7.67578 17.5906 7.67578 18.043V18.1265C7.67578 18.5783 7.94078 18.9937 8.35142 19.1855L14.3604 21.9799C14.5158 22.0518 14.6812 22.0883 14.8521 22.0883C15.0748 22.0883 15.2918 22.0251 15.4805 21.905C15.8185 21.689 16.0202 21.3211 16.0202 20.9206L16.0201 20.89Z" fill="#00AA00"/>
<path d="M21.9486 11.235C21.7294 10.9349 21.3769 10.7559 21.0055 10.7559H20.9756C20.4656 10.7559 20.0185 11.0821 19.8631 11.567L15.9044 23.8331C15.7917 24.1872 15.8551 24.5773 16.074 24.8772C16.2932 25.1771 16.6457 25.3563 17.0171 25.3563H17.0471C17.5569 25.3563 18.0038 25.0299 18.1589 24.5451L22.1172 12.28C22.2309 11.9261 22.1679 11.5355 21.9486 11.235Z" fill="#00AA00"/>
<path d="M29.6705 16.9838L23.662 14.1898C23.5104 14.1193 23.3406 14.082 23.1713 14.082C22.9467 14.082 22.7289 14.145 22.5421 14.2642C22.2038 14.4797 22.002 14.8478 22.002 15.2488V15.2792C22.002 15.7313 22.267 16.147 22.678 16.3387L26.4361 18.0847L22.6779 19.8308C22.2672 20.0215 22.002 20.4373 22.002 20.8899V20.9205C22.002 21.321 22.2038 21.6888 22.5419 21.905C22.73 22.0249 22.9472 22.0882 23.1701 22.0882C23.3408 22.0882 23.5061 22.0517 23.6625 21.9795L29.6713 19.1852C30.0816 18.9938 30.3465 18.5783 30.3465 18.1265V18.043C30.3462 17.5905 30.0811 17.1748 29.6705 16.9838Z" fill="#00AA00"/>
</svg>
