<svg width="81" height="81" viewBox="0 0 81 81" fill="none" xmlns="http://www.w3.org/2000/svg">
<circle cx="40.666" cy="40.4697" r="40" fill="#E6F0FF"/>
<g clip-path="url(#clip0_774_1718)">
<path d="M47.6128 54.0341C47.4056 53.908 47.225 53.739 47.0814 53.5341C47.0151 53.4396 46.9591 53.3396 46.9127 53.2364H23.36V30.0215H55.3294V45.18C56.0119 45.2417 56.5846 45.6899 56.825 46.3037C57.0379 46.187 57.2752 46.1149 57.5245 46.0929C57.6932 46.0783 57.8608 46.0887 58.0233 46.1208V24.2382C58.0233 23.0003 57.0164 21.9932 55.7785 21.9932H22.911C21.6731 21.9932 20.666 23.0003 20.666 24.2382V53.6855C20.666 54.9234 21.6731 55.9305 22.911 55.9305H47.4082C47.217 55.5433 47.1717 55.1063 47.2842 54.6859C47.3491 54.444 47.4613 54.2234 47.6128 54.0341ZM52.8642 25.763C52.8642 25.3052 53.2353 24.934 53.6931 24.934H54.522C54.9798 24.934 55.3509 25.3051 55.3509 25.763V26.7025C55.3509 27.1603 54.9797 27.5314 54.522 27.5314H53.6931C53.2352 27.5314 52.8642 27.1603 52.8642 26.7025V25.763ZM49.0097 25.763C49.0097 25.3052 49.3808 24.934 49.8386 24.934H50.6676C51.1255 24.934 51.4965 25.3051 51.4965 25.763V26.7025C51.4965 27.1603 51.1254 27.5314 50.6676 27.5314H49.8386C49.3808 27.5314 49.0097 27.1603 49.0097 26.7025V25.763ZM45.1552 25.763C45.1552 25.3052 45.5264 24.934 45.9841 24.934H46.813C47.2709 24.934 47.642 25.3051 47.642 25.763V26.7025C47.642 27.1603 47.2709 27.5314 46.813 27.5314H45.9841C45.5264 27.5314 45.1552 27.1603 45.1552 26.7025V25.763Z" fill="#00AA00"/>
<path d="M60.6608 52.4534L60.4117 51.0407C60.378 50.8505 60.1968 50.7235 60.0064 50.757L58.7502 50.9784C58.5994 50.6245 58.4068 50.293 58.1782 49.9896L58.9987 49.0116C59.0583 48.9407 59.0874 48.8488 59.0794 48.7563C59.0712 48.6638 59.0266 48.5784 58.9555 48.5187L57.8569 47.5967C57.7858 47.537 57.6937 47.5081 57.6013 47.5162C57.5088 47.5243 57.4235 47.5687 57.3638 47.6398L56.5441 48.6171C56.2075 48.4457 55.8476 48.3134 55.4705 48.2262V46.9505C55.4705 46.7574 55.3138 46.6006 55.1206 46.6006H53.6861C53.493 46.6006 53.3362 46.7574 53.3362 46.9505V48.2262C52.9589 48.3133 52.5993 48.4457 52.2626 48.6171L51.4427 47.6399C51.3185 47.4919 51.0978 47.4726 50.9497 47.5968L49.851 48.5187C49.7799 48.5784 49.7354 48.6638 49.7272 48.7563C49.7192 48.8488 49.7482 48.9408 49.8078 49.0118L50.6284 49.9897C50.4002 50.293 50.2072 50.6247 50.0564 50.9784L48.8002 50.757C48.6103 50.7235 48.4286 50.8505 48.3949 51.0407L48.1459 52.4534C48.1298 52.5447 48.1507 52.6386 48.2038 52.7147C48.2572 52.7908 48.3381 52.8426 48.4295 52.8587L49.6867 53.0802C49.7071 53.4697 49.775 53.8465 49.8841 54.2054L48.7792 54.8431C48.6988 54.8893 48.6402 54.9659 48.6161 55.0554C48.5921 55.145 48.6048 55.2405 48.6511 55.3209L49.3682 56.5631C49.4144 56.6435 49.491 56.7021 49.5806 56.7261C49.6104 56.7341 49.6408 56.738 49.6711 56.738C49.732 56.738 49.7923 56.7222 49.846 56.6911L50.9518 56.0526C51.2119 56.3312 51.5054 56.5781 51.8263 56.7869L51.3896 57.9865C51.358 58.0737 51.3621 58.1699 51.4013 58.254C51.4406 58.3381 51.5115 58.4032 51.5987 58.4348L52.9463 58.9253C52.985 58.9394 53.0256 58.9466 53.0661 58.9466C53.1166 58.9466 53.1673 58.9357 53.2141 58.9138C53.2982 58.8746 53.3631 58.8035 53.3948 58.7163L53.8313 57.5168C54.0185 57.5394 54.209 57.5511 54.4023 57.5511C54.5956 57.5511 54.7861 57.5392 54.9732 57.5168L55.4099 58.7163C55.4415 58.8035 55.5067 58.8746 55.5906 58.9138C55.6373 58.9356 55.6878 58.9466 55.7386 58.9466C55.779 58.9466 55.8196 58.9396 55.8582 58.9253L57.2061 58.4348C57.2931 58.4032 57.3641 58.3379 57.4033 58.254C57.4425 58.1699 57.4467 58.0737 57.415 57.9865L56.9783 56.7871C57.2989 56.5783 57.5924 56.3312 57.8528 56.0528L58.9586 56.6913C59.0122 56.7222 59.0726 56.7382 59.1335 56.7382C59.1637 56.7382 59.1944 56.7341 59.224 56.7262C59.3137 56.7022 59.3901 56.6435 59.4364 56.5633L60.1535 55.3209C60.1998 55.2407 60.2125 55.145 60.1885 55.0554C60.1644 54.9661 60.1058 54.8895 60.0254 54.8431L58.9207 54.2056C59.0298 53.8466 59.0975 53.4698 59.1179 53.0804L60.3751 52.8588C60.4665 52.8427 60.5477 52.7909 60.6008 52.7148C60.656 52.6386 60.6769 52.5447 60.6608 52.4534ZM54.4034 54.6981C53.3409 54.6981 52.4793 53.8365 52.4793 52.7739C52.4793 51.7112 53.341 50.8498 54.4034 50.8498C55.4661 50.8498 56.3277 51.7112 56.3277 52.7739C56.3277 53.8365 55.4661 54.6981 54.4034 54.6981Z" fill="#122740"/>
<path d="M36.3541 42.89C36.3541 42.4374 36.0888 42.0216 35.6782 41.8309L31.9199 40.0847L35.6783 38.3383C36.0888 38.1474 36.3541 37.7317 36.3541 37.2793V37.2489C36.3541 36.8479 36.1522 36.4797 35.8145 36.2645C35.6276 36.1452 35.4099 36.082 35.1852 36.082C35.0159 36.082 34.8458 36.1193 34.6937 36.19L28.6853 38.984C28.2749 39.1749 28.0098 39.5906 28.0098 40.043V40.1265C28.0098 40.5783 28.2748 40.9937 28.6854 41.1855L34.6944 43.9799C34.8497 44.0518 35.0152 44.0883 35.1861 44.0883C35.4088 44.0883 35.6258 44.0251 35.8145 43.905C36.1524 43.689 36.3542 43.3211 36.3542 42.9206L36.3541 42.89Z" fill="#122740"/>
<path d="M42.2826 33.235C42.0634 32.9349 41.7109 32.7559 41.3395 32.7559H41.3096C40.7996 32.7559 40.3525 33.0821 40.1971 33.567L36.2384 45.8331C36.1257 46.1872 36.1891 46.5773 36.408 46.8772C36.6272 47.1771 36.9797 47.3563 37.3511 47.3563H37.3811C37.8909 47.3563 38.3378 47.0299 38.4929 46.5451L42.4512 34.28C42.5649 33.9261 42.5019 33.5355 42.2826 33.235Z" fill="#122740"/>
<path d="M50.0045 38.9838L43.996 36.1898C43.8444 36.1193 43.6746 36.082 43.5053 36.082C43.2807 36.082 43.0629 36.145 42.8761 36.2642C42.5378 36.4797 42.3359 36.8478 42.3359 37.2488V37.2792C42.3359 37.7313 42.601 38.147 43.012 38.3387L46.7701 40.0847L43.0119 41.8308C42.6012 42.0215 42.3359 42.4373 42.3359 42.8899V42.9205C42.3359 43.321 42.5378 43.6888 42.8759 43.905C43.064 44.0249 43.2811 44.0882 43.5041 44.0882C43.6748 44.0882 43.8401 44.0517 43.9965 43.9795L50.0053 41.1852C50.4156 40.9938 50.6804 40.5783 50.6804 40.1265V40.043C50.6802 39.5905 50.4151 39.1748 50.0045 38.9838Z" fill="#00AA00"/>
</g>
<defs>
<clipPath id="clip0_774_1718">
<rect width="40" height="40" fill="white" transform="translate(20.666 20.4697)"/>
</clipPath>
</defs>
</svg>
