<svg width="81" height="81" viewBox="0 0 81 81" fill="none" xmlns="http://www.w3.org/2000/svg">
<circle cx="40.333" cy="40.4697" r="40" fill="#F6FFE6"/>
<g clip-path="url(#clip0_774_110)">
<path d="M47.2798 54.0341C47.0725 53.908 46.8919 53.739 46.7484 53.5341C46.6821 53.4396 46.6261 53.3396 46.5797 53.2364H23.027V30.0215H54.9964V45.18C55.6789 45.2417 56.2516 45.6899 56.492 46.3037C56.7049 46.187 56.9422 46.1149 57.1915 46.0929C57.3602 46.0783 57.5278 46.0887 57.6903 46.1208V24.2382C57.6903 23.0003 56.6834 21.9932 55.4455 21.9932H22.5779C21.3401 21.9932 20.333 23.0003 20.333 24.2382V53.6855C20.333 54.9234 21.3401 55.9305 22.5779 55.9305H47.0752C46.884 55.5433 46.8387 55.1063 46.9512 54.6859C47.0161 54.444 47.1283 54.2234 47.2798 54.0341ZM52.5312 25.763C52.5312 25.3052 52.9023 24.934 53.3601 24.934H54.1889C54.6468 24.934 55.0178 25.3051 55.0178 25.763V26.7025C55.0178 27.1603 54.6467 27.5314 54.1889 27.5314H53.3601C52.9022 27.5314 52.5312 27.1603 52.5312 26.7025V25.763ZM48.6767 25.763C48.6767 25.3052 49.0478 24.934 49.5056 24.934H50.3346C50.7925 24.934 51.1635 25.3051 51.1635 25.763V26.7025C51.1635 27.1603 50.7924 27.5314 50.3346 27.5314H49.5056C49.0478 27.5314 48.6767 27.1603 48.6767 26.7025V25.763ZM44.8222 25.763C44.8222 25.3052 45.1934 24.934 45.6511 24.934H46.48C46.9379 24.934 47.309 25.3051 47.309 25.763V26.7025C47.309 27.1603 46.9379 27.5314 46.48 27.5314H45.6511C45.1934 27.5314 44.8222 27.1603 44.8222 26.7025V25.763Z" fill="#00AA00"/>
<path d="M60.3277 52.4534L60.0787 51.0407C60.045 50.8505 59.8638 50.7235 59.6734 50.757L58.4171 50.9784C58.2664 50.6245 58.0738 50.293 57.8451 49.9896L58.6657 49.0116C58.7253 48.9407 58.7543 48.8488 58.7463 48.7563C58.7382 48.6638 58.6936 48.5784 58.6225 48.5187L57.5239 47.5967C57.4528 47.537 57.3607 47.5081 57.2683 47.5162C57.1758 47.5243 57.0905 47.5687 57.0308 47.6398L56.2111 48.6171C55.8745 48.4457 55.5146 48.3134 55.1375 48.2262V46.9505C55.1375 46.7574 54.9808 46.6006 54.7876 46.6006H53.3531C53.16 46.6006 53.0032 46.7574 53.0032 46.9505V48.2262C52.6259 48.3133 52.2663 48.4457 51.9296 48.6171L51.1097 47.6399C50.9854 47.4919 50.7648 47.4726 50.6167 47.5968L49.518 48.5187C49.4469 48.5784 49.4024 48.6638 49.3942 48.7563C49.3862 48.8488 49.4152 48.9408 49.4748 49.0118L50.2954 49.9897C50.0672 50.293 49.8742 50.6247 49.7234 50.9784L48.4672 50.757C48.2773 50.7235 48.0956 50.8505 48.0619 51.0407L47.8129 52.4534C47.7968 52.5447 47.8177 52.6386 47.8707 52.7147C47.9242 52.7908 48.0051 52.8426 48.0965 52.8587L49.3537 53.0802C49.3741 53.4697 49.442 53.8465 49.5511 54.2054L48.4462 54.8431C48.3658 54.8893 48.3072 54.9659 48.2831 55.0554C48.2591 55.145 48.2718 55.2405 48.3181 55.3209L49.0352 56.5631C49.0814 56.6435 49.158 56.7021 49.2475 56.7261C49.2774 56.7341 49.3077 56.738 49.3381 56.738C49.399 56.738 49.4593 56.7222 49.513 56.6911L50.6188 56.0526C50.8789 56.3312 51.1724 56.5781 51.4932 56.7869L51.0566 57.9865C51.025 58.0737 51.0291 58.1699 51.0683 58.254C51.1076 58.3381 51.1785 58.4032 51.2657 58.4348L52.6133 58.9253C52.652 58.9394 52.6926 58.9466 52.7331 58.9466C52.7836 58.9466 52.8343 58.9357 52.8811 58.9138C52.9652 58.8746 53.0301 58.8035 53.0618 58.7163L53.4983 57.5168C53.6855 57.5394 53.876 57.5511 54.0693 57.5511C54.2626 57.5511 54.4531 57.5392 54.6402 57.5168L55.0769 58.7163C55.1085 58.8035 55.1737 58.8746 55.2576 58.9138C55.3043 58.9356 55.3548 58.9466 55.4056 58.9466C55.446 58.9466 55.4866 58.9396 55.5252 58.9253L56.8731 58.4348C56.96 58.4032 57.0311 58.3379 57.0703 58.254C57.1095 58.1699 57.1137 58.0737 57.082 57.9865L56.6453 56.7871C56.9659 56.5783 57.2594 56.3312 57.5198 56.0528L58.6256 56.6913C58.6792 56.7222 58.7396 56.7382 58.8004 56.7382C58.8307 56.7382 58.8614 56.7341 58.891 56.7262C58.9807 56.7022 59.0571 56.6435 59.1034 56.5633L59.8205 55.3209C59.8668 55.2407 59.8795 55.145 59.8555 55.0554C59.8314 54.9661 59.7728 54.8895 59.6924 54.8431L58.5876 54.2056C58.6968 53.8466 58.7644 53.4698 58.7849 53.0804L60.0421 52.8588C60.1335 52.8427 60.2147 52.7909 60.2678 52.7148C60.323 52.6386 60.3438 52.5447 60.3277 52.4534ZM54.0704 54.6981C53.0079 54.6981 52.1463 53.8365 52.1463 52.7739C52.1463 51.7112 53.008 50.8498 54.0704 50.8498C55.1331 50.8498 55.9947 51.7112 55.9947 52.7739C55.9947 53.8365 55.1331 54.6981 54.0704 54.6981Z" fill="#00AA00"/>
<path d="M36.0201 42.89C36.0201 42.4374 35.7548 42.0216 35.3442 41.8309L31.5859 40.0847L35.3443 38.3383C35.7548 38.1474 36.0201 37.7317 36.0201 37.2793V37.2489C36.0201 36.8479 35.8183 36.4797 35.4805 36.2645C35.2936 36.1452 35.0759 36.082 34.8512 36.082C34.6819 36.082 34.5119 36.1193 34.3597 36.19L28.3513 38.984C27.9409 39.1749 27.6758 39.5906 27.6758 40.043V40.1265C27.6758 40.5783 27.9408 40.9937 28.3514 41.1855L34.3604 43.9799C34.5158 44.0518 34.6812 44.0883 34.8521 44.0883C35.0748 44.0883 35.2918 44.0251 35.4805 43.905C35.8185 43.689 36.0202 43.3211 36.0202 42.9206L36.0201 42.89Z" fill="#00AA00"/>
<path d="M41.9486 33.235C41.7294 32.9349 41.3769 32.7559 41.0055 32.7559H40.9756C40.4656 32.7559 40.0185 33.0821 39.8631 33.567L35.9044 45.8331C35.7917 46.1872 35.8551 46.5773 36.074 46.8772C36.2932 47.1771 36.6457 47.3563 37.0171 47.3563H37.0471C37.5569 47.3563 38.0038 47.0299 38.1589 46.5451L42.1172 34.28C42.2309 33.9261 42.1679 33.5355 41.9486 33.235Z" fill="#00AA00"/>
<path d="M49.6705 38.9838L43.662 36.1898C43.5104 36.1193 43.3406 36.082 43.1713 36.082C42.9467 36.082 42.7289 36.145 42.5421 36.2642C42.2038 36.4797 42.002 36.8478 42.002 37.2488V37.2792C42.002 37.7313 42.267 38.147 42.678 38.3387L46.4361 40.0847L42.6779 41.8308C42.2672 42.0215 42.002 42.4373 42.002 42.8899V42.9205C42.002 43.321 42.2038 43.6888 42.5419 43.905C42.73 44.0249 42.9472 44.0882 43.1701 44.0882C43.3408 44.0882 43.5061 44.0517 43.6625 43.9795L49.6713 41.1852C50.0816 40.9938 50.3465 40.5783 50.3465 40.1265V40.043C50.3462 39.5905 50.0811 39.1748 49.6705 38.9838Z" fill="#00AA00"/>
</g>
<defs>
<clipPath id="clip0_774_110">
<rect width="40" height="40" fill="white" transform="translate(20.333 20.4697)"/>
</clipPath>
</defs>
</svg>
