<svg width="40" height="40" viewBox="0 0 40 40" fill="none" xmlns="http://www.w3.org/2000/svg">
<circle cx="20" cy="20" r="20" fill="#00AA00"/>
<path d="M19.9997 12.07C22.5836 12.07 22.8895 12.0796 23.9103 12.1262C24.524 12.1337 25.1319 12.2464 25.7075 12.4594C26.125 12.6203 26.5041 12.867 26.8204 13.1833C27.1368 13.4997 27.3834 13.8788 27.5444 14.2962C27.7574 14.8718 27.8701 15.4797 27.8776 16.0935C27.9236 17.1142 27.9338 17.4202 27.9338 20.0041C27.9338 22.5879 27.9241 22.8939 27.8776 23.9146C27.8701 24.5284 27.7574 25.1363 27.5444 25.7119C27.3834 26.1293 27.1368 26.5084 26.8204 26.8248C26.5041 27.1412 26.125 27.3878 25.7075 27.5488C25.1319 27.7617 24.524 27.8744 23.9103 27.8819C22.89 27.928 22.584 27.9382 19.9997 27.9382C17.4154 27.9382 17.1094 27.9285 16.0891 27.8819C15.4754 27.8744 14.8675 27.7617 14.2919 27.5488C13.8744 27.3878 13.4953 27.1412 13.1789 26.8248C12.8626 26.5084 12.616 26.1293 12.455 25.7119C12.242 25.1363 12.1293 24.5284 12.1218 23.9146C12.0757 22.8939 12.0656 22.5879 12.0656 20.0041C12.0656 17.4202 12.0753 17.1142 12.1218 16.0935C12.1293 15.4797 12.242 14.8718 12.455 14.2962C12.616 13.8788 12.8626 13.4997 13.1789 13.1833C13.4953 12.867 13.8744 12.6203 14.2919 12.4594C14.8675 12.2464 15.4754 12.1337 16.0891 12.1262C17.1098 12.0801 17.4158 12.07 19.9997 12.07ZM19.9997 10.3262C17.373 10.3262 17.0421 10.3372 16.0098 10.3842C15.2066 10.4002 14.4119 10.5523 13.6596 10.834C13.0142 11.0772 12.4296 11.4582 11.9467 11.9506C11.4539 12.4337 11.0725 13.0186 10.8292 13.6644C10.5475 14.4168 10.3954 15.2114 10.3794 16.0147C10.3333 17.046 10.3223 17.3769 10.3223 20.0036C10.3223 22.6303 10.3333 22.9612 10.3803 23.9935C10.3963 24.7967 10.5484 25.5913 10.8301 26.3437C11.0731 26.9894 11.4542 27.5743 11.9467 28.0575C12.4299 28.55 13.0148 28.9311 13.6605 29.1741C14.4129 29.4558 15.2075 29.6079 16.0107 29.6239C17.043 29.6699 17.3725 29.6819 20.0006 29.6819C22.6287 29.6819 22.9582 29.6709 23.9905 29.6239C24.7937 29.6079 25.5883 29.4558 26.3407 29.1741C26.9834 28.925 27.567 28.5445 28.0542 28.057C28.5414 27.5694 28.9215 26.9856 29.1702 26.3428C29.4519 25.5904 29.604 24.7957 29.62 23.9925C29.666 22.9612 29.6771 22.6303 29.6771 20.0036C29.6771 17.3769 29.666 17.046 29.619 16.0137C29.6031 15.2105 29.451 14.4158 29.1693 13.6635C28.9262 13.0178 28.5452 12.4329 28.0527 11.9497C27.5695 11.4572 26.9846 11.0761 26.3389 10.8331C25.5865 10.5514 24.7918 10.3993 23.9886 10.3833C22.9573 10.3372 22.6264 10.3262 19.9997 10.3262Z" fill="white"/>
<path d="M20.0008 15.0371C19.0179 15.0371 18.0571 15.3286 17.2399 15.8746C16.4226 16.4207 15.7857 17.1968 15.4095 18.1049C15.0334 19.013 14.935 20.0122 15.1267 20.9762C15.3185 21.9402 15.7918 22.8257 16.4868 23.5207C17.1818 24.2157 18.0673 24.689 19.0313 24.8808C19.9953 25.0725 20.9945 24.9741 21.9026 24.598C22.8107 24.2219 23.5868 23.5849 24.1329 22.7676C24.679 21.9504 24.9704 20.9896 24.9704 20.0067C24.9704 18.6887 24.4468 17.4246 23.5149 16.4927C22.5829 15.5607 21.3189 15.0371 20.0008 15.0371ZM20.0008 23.2325C19.3628 23.2325 18.7392 23.0433 18.2087 22.6889C17.6782 22.3344 17.2647 21.8306 17.0206 21.2412C16.7764 20.6517 16.7125 20.0031 16.837 19.3774C16.9615 18.7516 17.2687 18.1768 17.7198 17.7257C18.171 17.2746 18.7458 16.9673 19.3715 16.8429C19.9973 16.7184 20.6459 16.7823 21.2353 17.0264C21.8247 17.2706 22.3285 17.6841 22.683 18.2145C23.0375 18.745 23.2266 19.3687 23.2266 20.0067C23.2266 20.8622 22.8868 21.6827 22.2818 22.2877C21.6769 22.8926 20.8564 23.2325 20.0008 23.2325Z" fill="white"/>
<path d="M25.1652 15.9993C25.8066 15.9993 26.3265 15.4794 26.3265 14.838C26.3265 14.1967 25.8066 13.6768 25.1652 13.6768C24.5238 13.6768 24.0039 14.1967 24.0039 14.838C24.0039 15.4794 24.5238 15.9993 25.1652 15.9993Z" fill="white"/>
</svg>
