<svg width="18" height="19" viewBox="0 0 18 19" fill="none"
    xmlns="http://www.w3.org/2000/svg">
    <path d="M11.25 11.2341L12.7838 10.0844C14.6018 8.72013 15.4065 5.96913 15 3.73413C12.7643 3.32763 10.0132 4.13238 8.64975 5.95038L7.5 7.48413M11.25 11.2341L8.625 13.1091L5.625 10.1091L7.5 7.48413M11.25 11.2341V13.2344C11.25 13.8835 11.0395 14.5151 10.65 15.0344L10.125 15.7341L9.375 14.9841M7.5 7.48413H5.49975C4.85064 7.48413 4.21904 7.69467 3.69975 8.08413L3 8.60913L3.75 9.35913M6.375 14.2341L3.75 14.9841L4.6245 12.3591M11.625 7.85913C11.8239 7.85913 12.0147 7.78011 12.1553 7.63946C12.296 7.49881 12.375 7.30804 12.375 7.10913C12.375 6.91022 12.296 6.71945 12.1553 6.5788C12.0147 6.43815 11.8239 6.35913 11.625 6.35913C11.4261 6.35913 11.2353 6.43815 11.0947 6.5788C10.954 6.71945 10.875 6.91022 10.875 7.10913C10.875 7.30804 10.954 7.49881 11.0947 7.63946C11.2353 7.78011 11.4261 7.85913 11.625 7.85913V7.85913Z" stroke="white" stroke-width="1.5" stroke-linecap="round" stroke-linejoin="round"/>
</svg>
