<svg width="40" height="40" viewBox="0 0 40 40" fill="none"
    xmlns="http://www.w3.org/2000/svg">
    <circle cx="20" cy="20" r="20" fill="#00AA00"/>
    <path d="M28.8651 15.6908C28.2665 15.9569 27.6346 16.1232 26.9695 16.2229C27.6346 15.8239 28.1667 15.192 28.3995 14.4271C27.7677 14.7929 27.0693 15.059 26.3044 15.2253C25.7058 14.5934 24.8412 14.1943 23.91 14.1943C22.1142 14.1943 20.6509 15.6576 20.6509 17.4534C20.6509 17.7194 20.6842 17.9522 20.7507 18.185C18.057 18.052 15.6293 16.755 13.9998 14.7597C13.7337 15.2585 13.5675 15.7906 13.5675 16.3892C13.5675 17.5199 14.1328 18.5176 15.0307 19.1162C14.4986 19.0829 13.9998 18.9499 13.5342 18.7171V18.7504C13.5342 20.3466 14.6649 21.6769 16.1614 21.9762C15.8954 22.0427 15.5961 22.0759 15.2968 22.0759C15.0972 22.0759 14.8644 22.0427 14.6649 22.0094C15.0972 23.3064 16.2944 24.2708 17.7244 24.2708C16.5937 25.1355 15.197 25.6676 13.6672 25.6676C13.4012 25.6676 13.1351 25.6676 12.9023 25.6343C14.3656 26.5655 16.0616 27.0976 17.924 27.0976C23.9432 27.0976 27.2356 22.1092 27.2356 17.786C27.2356 17.6529 27.2356 17.4867 27.2356 17.3536C27.8674 16.9213 28.4328 16.356 28.8651 15.6908Z" fill="white"/>
</svg>
